<svg xmlns="http://www.w3.org/2000/svg" version="1.1" xmlns:xlink="http://www.w3.org/1999/xlink" xmlns:svgjs="http://svgjs.dev/svgjs" viewBox="0 0 800 800"><defs><linearGradient x1="50%" y1="0%" x2="50%" y2="100%" id="ffflurry-grad" gradientTransform="rotate(270)"><stop stop-color="hsl(238, 53%, 6%)" stop-opacity="1" offset="0%"></stop><stop stop-color="hsl(212, 72%, 59%)" stop-opacity="1" offset="45%"></stop><stop stop-color="hsl(272, 99%, 54%)" stop-opacity="1" offset="100%"></stop></linearGradient></defs><rect width="100%" height="100%" fill="hsl(238, 53%, 6%)"></rect><g fill="url(#ffflurry-grad)"><rect width="222" height="3" x="273" y="336.5" rx="1.5" transform="rotate(45, 384, 338)" opacity="0.42"></rect><rect width="383" height="3" x="430.5" y="108.5" rx="1.5" transform="rotate(45, 622, 110)" opacity="0.87"></rect><rect width="189" height="3" x="328.5" y="613.5" rx="1.5" transform="rotate(45, 423, 615)" opacity="0.22"></rect><rect width="506" height="3" x="179" y="704.5" rx="1.5" transform="rotate(45, 432, 706)" opacity="0.55"></rect><rect width="436" height="3" x="-16" y="306.5" rx="1.5" transform="rotate(45, 202, 308)" opacity="0.68"></rect><rect width="624" height="3" x="440" y="521.5" rx="1.5" transform="rotate(45, 752, 523)" opacity="0.96"></rect><rect width="278" height="3" x="214" y="756.5" rx="1.5" transform="rotate(45, 353, 758)" opacity="0.77"></rect><rect width="206" height="3" x="465" y="174.5" rx="1.5" transform="rotate(45, 568, 176)" opacity="0.25"></rect><rect width="164" height="3" x="605" y="390.5" rx="1.5" transform="rotate(45, 687, 392)" opacity="0.08"></rect><rect width="595" height="3" x="-245.5" y="451.5" rx="1.5" transform="rotate(45, 52, 453)" opacity="0.25"></rect><rect width="398" height="3" x="-23" y="595.5" rx="1.5" transform="rotate(45, 176, 597)" opacity="0.13"></rect><rect width="367" height="3" x="-131.5" y="181.5" rx="1.5" transform="rotate(45, 52, 183)" opacity="0.88"></rect><rect width="287" height="3" x="537.5" y="607.5" rx="1.5" transform="rotate(45, 681, 609)" opacity="0.51"></rect><rect width="354" height="3" x="26" y="481.5" rx="1.5" transform="rotate(45, 203, 483)" opacity="0.45"></rect><rect width="179" height="3" x="309.5" y="133.5" rx="1.5" transform="rotate(45, 399, 135)" opacity="0.14"></rect><rect width="168" height="3" x="652" y="214.5" rx="1.5" transform="rotate(45, 736, 216)" opacity="0.74"></rect><rect width="533" height="3" x="459.5" y="301.5" rx="1.5" transform="rotate(45, 726, 303)" opacity="0.38"></rect><rect width="153" height="3" x="132.5" y="141.5" rx="1.5" transform="rotate(45, 209, 143)" opacity="0.76"></rect><rect width="496" height="3" x="481" y="744.5" rx="1.5" transform="rotate(45, 729, 746)" opacity="0.35"></rect><rect width="371" height="3" x="-15.5" y="735.5" rx="1.5" transform="rotate(45, 170, 737)" opacity="0.33"></rect><rect width="414" height="3" x="373" y="574.5" rx="1.5" transform="rotate(45, 580, 576)" opacity="0.07"></rect><rect width="119" height="3" x="-15.5" y="569.5" rx="1.5" transform="rotate(45, 44, 571)" opacity="0.37"></rect><rect width="413" height="3" x="367.5" y="35.5" rx="1.5" transform="rotate(45, 574, 37)" opacity="0.07"></rect><rect width="230" height="3" x="-17" y="315.5" rx="1.5" transform="rotate(45, 98, 317)" opacity="0.44"></rect><rect width="85" height="3" x="612.5" y="221.5" rx="1.5" transform="rotate(45, 655, 223)" opacity="0.43"></rect><rect width="181" height="3" x="420.5" y="598.5" rx="1.5" transform="rotate(45, 511, 600)" opacity="0.81"></rect><rect width="188" height="3" x="584" y="473.5" rx="1.5" transform="rotate(45, 678, 475)" opacity="0.12"></rect><rect width="221" height="3" x="203.5" y="141.5" rx="1.5" transform="rotate(45, 314, 143)" opacity="0.69"></rect><rect width="269" height="3" x="535.5" y="30.5" rx="1.5" transform="rotate(45, 670, 32)" opacity="0.93"></rect><rect width="270" height="3" x="350" y="762.5" rx="1.5" transform="rotate(45, 485, 764)" opacity="0.91"></rect><rect width="575" height="3" x="7.5" y="298.5" rx="1.5" transform="rotate(45, 295, 300)" opacity="0.87"></rect><rect width="234" height="3" x="377" y="131.5" rx="1.5" transform="rotate(45, 494, 133)" opacity="0.93"></rect><rect width="548" height="3" x="-26" y="205.5" rx="1.5" transform="rotate(45, 248, 207)" opacity="0.22"></rect><rect width="328" height="3" x="-42" y="147.5" rx="1.5" transform="rotate(45, 122, 149)" opacity="0.48"></rect><rect width="284" height="3" x="5" y="24.5" rx="1.5" transform="rotate(45, 147, 26)" opacity="0.30"></rect><rect width="204" height="3" x="494" y="416.5" rx="1.5" transform="rotate(45, 596, 418)" opacity="0.30"></rect><rect width="428" height="3" x="138" y="663.5" rx="1.5" transform="rotate(45, 352, 665)" opacity="0.47"></rect><rect width="436" height="3" x="14" y="60.5" rx="1.5" transform="rotate(45, 232, 62)" opacity="0.43"></rect><rect width="332" height="3" x="177" y="231.5" rx="1.5" transform="rotate(45, 343, 233)" opacity="0.60"></rect><rect width="112" height="3" x="469" y="476.5" rx="1.5" transform="rotate(45, 525, 478)" opacity="0.64"></rect><rect width="398" height="3" x="-153" y="59.5" rx="1.5" transform="rotate(45, 46, 61)" opacity="0.56"></rect><rect width="623" height="3" x="236.5" y="254.5" rx="1.5" transform="rotate(45, 548, 256)" opacity="0.68"></rect><rect width="389" height="3" x="-139.5" y="764.5" rx="1.5" transform="rotate(45, 55, 766)" opacity="0.76"></rect><rect width="187" height="3" x="418.5" y="49.5" rx="1.5" transform="rotate(45, 512, 51)" opacity="0.96"></rect><rect width="202" height="3" x="61" y="233.5" rx="1.5" transform="rotate(45, 162, 235)" opacity="0.75"></rect><rect width="389" height="3" x="-60.5" y="411.5" rx="1.5" transform="rotate(45, 134, 413)" opacity="0.83"></rect><rect width="419" height="3" x="314.5" y="672.5" rx="1.5" transform="rotate(45, 524, 674)" opacity="0.86"></rect><rect width="404" height="3" x="281" y="536.5" rx="1.5" transform="rotate(45, 483, 538)" opacity="0.10"></rect><rect width="369" height="3" x="315.5" y="391.5" rx="1.5" transform="rotate(45, 500, 393)" opacity="0.45"></rect><rect width="95" height="3" x="278.5" y="405.5" rx="1.5" transform="rotate(45, 326, 407)" opacity="0.94"></rect><rect width="281" height="3" x="322.5" y="309.5" rx="1.5" transform="rotate(45, 463, 311)" opacity="0.95"></rect><rect width="217" height="3" x="656.5" y="439.5" rx="1.5" transform="rotate(45, 765, 441)" opacity="0.53"></rect><rect width="326" height="3" x="605" y="361.5" rx="1.5" transform="rotate(45, 768, 363)" opacity="0.69"></rect><rect width="240" height="3" x="652" y="165.5" rx="1.5" transform="rotate(45, 772, 167)" opacity="0.18"></rect><rect width="551" height="3" x="91.5" y="41.5" rx="1.5" transform="rotate(45, 367, 43)" opacity="0.21"></rect><rect width="511" height="3" x="3.5" y="745.5" rx="1.5" transform="rotate(45, 259, 747)" opacity="0.83"></rect><rect width="79" height="3" x="386.5" y="493.5" rx="1.5" transform="rotate(45, 426, 495)" opacity="0.11"></rect><rect width="77" height="3" x="404.5" y="219.5" rx="1.5" transform="rotate(45, 443, 221)" opacity="0.67"></rect><rect width="543" height="3" x="12.5" y="500.5" rx="1.5" transform="rotate(45, 284, 502)" opacity="0.14"></rect><rect width="305" height="3" x="474.5" y="520.5" rx="1.5" transform="rotate(45, 627, 522)" opacity="0.67"></rect><rect width="393" height="3" x="545.5" y="74.5" rx="1.5" transform="rotate(45, 742, 76)" opacity="0.40"></rect><rect width="163" height="3" x="679.5" y="631.5" rx="1.5" transform="rotate(45, 761, 633)" opacity="0.47"></rect><rect width="315" height="3" x="103.5" y="630.5" rx="1.5" transform="rotate(45, 261, 632)" opacity="0.30"></rect><rect width="151" height="3" x="28.5" y="613.5" rx="1.5" transform="rotate(45, 104, 615)" opacity="0.50"></rect><rect width="566" height="3" x="313" y="326.5" rx="1.5" transform="rotate(45, 596, 328)" opacity="0.63"></rect><rect width="571" height="3" x="341.5" y="676.5" rx="1.5" transform="rotate(45, 627, 678)" opacity="0.29"></rect><rect width="184" height="3" x="318" y="554.5" rx="1.5" transform="rotate(45, 410, 556)" opacity="0.62"></rect><rect width="298" height="3" x="445" y="758.5" rx="1.5" transform="rotate(45, 594, 760)" opacity="0.69"></rect><rect width="221" height="3" x="39.5" y="84.5" rx="1.5" transform="rotate(45, 150, 86)" opacity="0.57"></rect><rect width="197" height="3" x="344.5" y="45.5" rx="1.5" transform="rotate(45, 443, 47)" opacity="0.29"></rect><rect width="72" height="3" x="385" y="428.5" rx="1.5" transform="rotate(45, 421, 430)" opacity="0.21"></rect><rect width="138" height="3" x="258" y="570.5" rx="1.5" transform="rotate(45, 327, 572)" opacity="0.84"></rect><rect width="470" height="3" x="-204" y="286.5" rx="1.5" transform="rotate(45, 31, 288)" opacity="0.84"></rect><rect width="477" height="3" x="55.5" y="44.5" rx="1.5" transform="rotate(45, 294, 46)" opacity="0.48"></rect><rect width="567" height="3" x="-48.5" y="379.5" rx="1.5" transform="rotate(45, 235, 381)" opacity="0.26"></rect><rect width="402" height="3" x="162" y="499.5" rx="1.5" transform="rotate(45, 363, 501)" opacity="0.68"></rect><rect width="500" height="3" x="-185" y="691.5" rx="1.5" transform="rotate(45, 65, 693)" opacity="0.23"></rect></g></svg>