<svg xmlns="http://www.w3.org/2000/svg" version="1.1" xmlns:xlink="http://www.w3.org/1999/xlink" xmlns:svgjs="http://svgjs.dev/svgjs" viewBox="0 0 800 800"><g fill="none" stroke-width="3" stroke="hsl(335, 77%, 50%)" stroke-linecap="round"><line x1="425" y1="400" x2="375" y2="400" transform="rotate(0, 400, 400)" opacity="0.12"></line><line x1="719" y1="400" x2="81" y2="400" transform="rotate(4, 400, 400)" opacity="0.43"></line><line x1="224.5" y1="400" x2="575.5" y2="400" transform="rotate(8, 400, 400)" opacity="0.93"></line><line x1="443.5" y1="400" x2="356.5" y2="400" transform="rotate(12, 400, 400)" opacity="0.48"></line><line x1="647.5" y1="400" x2="152.5" y2="400" transform="rotate(16, 400, 400)" opacity="0.18"></line><line x1="460.5" y1="400" x2="339.5" y2="400" transform="rotate(20, 400, 400)" opacity="0.30"></line><line x1="326" y1="400" x2="474" y2="400" transform="rotate(24, 400, 400)" opacity="0.90"></line><line x1="611.5" y1="400" x2="188.5" y2="400" transform="rotate(28, 400, 400)" opacity="0.21"></line><line x1="47.5" y1="400" x2="752.5" y2="400" transform="rotate(32, 400, 400)" opacity="0.28"></line><line x1="652" y1="400" x2="148" y2="400" transform="rotate(36, 400, 400)" opacity="0.99"></line><line x1="199.5" y1="400" x2="600.5" y2="400" transform="rotate(40, 400, 400)" opacity="0.53"></line><line x1="77.5" y1="400" x2="722.5" y2="400" transform="rotate(44, 400, 400)" opacity="0.58"></line><line x1="297" y1="400" x2="503" y2="400" transform="rotate(48, 400, 400)" opacity="0.16"></line><line x1="680" y1="400" x2="120" y2="400" transform="rotate(52, 400, 400)" opacity="0.61"></line><line x1="730" y1="400" x2="70" y2="400" transform="rotate(56, 400, 400)" opacity="0.50"></line><line x1="582.5" y1="400" x2="217.5" y2="400" transform="rotate(60, 400, 400)" opacity="0.90"></line><line x1="337.5" y1="400" x2="462.5" y2="400" transform="rotate(64, 400, 400)" opacity="0.61"></line><line x1="360.5" y1="400" x2="439.5" y2="400" transform="rotate(68, 400, 400)" opacity="0.57"></line><line x1="649.5" y1="400" x2="150.5" y2="400" transform="rotate(72, 400, 400)" opacity="0.78"></line><line x1="29.5" y1="400" x2="770.5" y2="400" transform="rotate(76, 400, 400)" opacity="0.54"></line><line x1="409.5" y1="400" x2="390.5" y2="400" transform="rotate(80, 400, 400)" opacity="0.15"></line><line x1="633" y1="400" x2="167" y2="400" transform="rotate(84, 400, 400)" opacity="0.76"></line><line x1="371.5" y1="400" x2="428.5" y2="400" transform="rotate(88, 400, 400)" opacity="0.45"></line><line x1="408.5" y1="400" x2="391.5" y2="400" transform="rotate(92, 400, 400)" opacity="0.71"></line><line x1="128.5" y1="400" x2="671.5" y2="400" transform="rotate(96, 400, 400)" opacity="0.54"></line><line x1="704.5" y1="400" x2="95.5" y2="400" transform="rotate(100, 400, 400)" opacity="0.16"></line><line x1="514.5" y1="400" x2="285.5" y2="400" transform="rotate(104, 400, 400)" opacity="0.09"></line><line x1="227.5" y1="400" x2="572.5" y2="400" transform="rotate(108, 400, 400)" opacity="0.79"></line><line x1="32.5" y1="400" x2="767.5" y2="400" transform="rotate(112, 400, 400)" opacity="0.28"></line><line x1="347.5" y1="400" x2="452.5" y2="400" transform="rotate(116, 400, 400)" opacity="0.33"></line><line x1="341" y1="400" x2="459" y2="400" transform="rotate(120, 400, 400)" opacity="0.66"></line><line x1="129.5" y1="400" x2="670.5" y2="400" transform="rotate(124, 400, 400)" opacity="0.56"></line><line x1="591.5" y1="400" x2="208.5" y2="400" transform="rotate(128, 400, 400)" opacity="0.32"></line><line x1="142" y1="400" x2="658" y2="400" transform="rotate(132, 400, 400)" opacity="0.23"></line><line x1="428.5" y1="400" x2="371.5" y2="400" transform="rotate(136, 400, 400)" opacity="0.69"></line><line x1="480.5" y1="400" x2="319.5" y2="400" transform="rotate(140, 400, 400)" opacity="0.40"></line><line x1="612" y1="400" x2="188" y2="400" transform="rotate(144, 400, 400)" opacity="0.54"></line><line x1="719.5" y1="400" x2="80.5" y2="400" transform="rotate(148, 400, 400)" opacity="0.11"></line><line x1="229" y1="400" x2="571" y2="400" transform="rotate(152, 400, 400)" opacity="0.24"></line><line x1="178.5" y1="400" x2="621.5" y2="400" transform="rotate(156, 400, 400)" opacity="0.23"></line><line x1="443" y1="400" x2="357" y2="400" transform="rotate(160, 400, 400)" opacity="0.64"></line><line x1="24.5" y1="400" x2="775.5" y2="400" transform="rotate(164, 400, 400)" opacity="0.71"></line><line x1="204.5" y1="400" x2="595.5" y2="400" transform="rotate(168, 400, 400)" opacity="0.21"></line><line x1="592" y1="400" x2="208" y2="400" transform="rotate(172, 400, 400)" opacity="0.72"></line><line x1="714" y1="400" x2="86" y2="400" transform="rotate(176, 400, 400)" opacity="0.48"></line><line x1="335.5" y1="400" x2="464.5" y2="400" transform="rotate(180, 400, 400)" opacity="0.20"></line><line x1="119" y1="400" x2="681" y2="400" transform="rotate(184, 400, 400)" opacity="0.91"></line><line x1="92" y1="400" x2="708" y2="400" transform="rotate(188, 400, 400)" opacity="0.33"></line><line x1="373" y1="400" x2="427" y2="400" transform="rotate(192, 400, 400)" opacity="0.59"></line><line x1="480.5" y1="400" x2="319.5" y2="400" transform="rotate(196, 400, 400)" opacity="0.79"></line><line x1="347.5" y1="400" x2="452.5" y2="400" transform="rotate(200, 400, 400)" opacity="0.13"></line><line x1="378.5" y1="400" x2="421.5" y2="400" transform="rotate(204, 400, 400)" opacity="0.14"></line><line x1="102.5" y1="400" x2="697.5" y2="400" transform="rotate(208, 400, 400)" opacity="0.40"></line><line x1="715.5" y1="400" x2="84.5" y2="400" transform="rotate(212, 400, 400)" opacity="0.32"></line><line x1="48" y1="400" x2="752" y2="400" transform="rotate(216, 400, 400)" opacity="0.42"></line><line x1="483" y1="400" x2="317" y2="400" transform="rotate(220, 400, 400)" opacity="0.97"></line><line x1="557.5" y1="400" x2="242.5" y2="400" transform="rotate(224, 400, 400)" opacity="0.33"></line><line x1="333" y1="400" x2="467" y2="400" transform="rotate(228, 400, 400)" opacity="0.64"></line><line x1="588" y1="400" x2="212" y2="400" transform="rotate(232, 400, 400)" opacity="0.93"></line><line x1="342.5" y1="400" x2="457.5" y2="400" transform="rotate(236, 400, 400)" opacity="0.33"></line><line x1="338" y1="400" x2="462" y2="400" transform="rotate(240, 400, 400)" opacity="0.96"></line><line x1="28.5" y1="400" x2="771.5" y2="400" transform="rotate(244, 400, 400)" opacity="0.92"></line><line x1="682.5" y1="400" x2="117.5" y2="400" transform="rotate(248, 400, 400)" opacity="0.66"></line><line x1="648.5" y1="400" x2="151.5" y2="400" transform="rotate(252, 400, 400)" opacity="0.39"></line><line x1="86" y1="400" x2="714" y2="400" transform="rotate(256, 400, 400)" opacity="0.20"></line><line x1="276.5" y1="400" x2="523.5" y2="400" transform="rotate(260, 400, 400)" opacity="0.24"></line><line x1="509.5" y1="400" x2="290.5" y2="400" transform="rotate(264, 400, 400)" opacity="0.23"></line><line x1="573" y1="400" x2="227" y2="400" transform="rotate(268, 400, 400)" opacity="0.35"></line><line x1="531.5" y1="400" x2="268.5" y2="400" transform="rotate(272, 400, 400)" opacity="0.68"></line><line x1="106.5" y1="400" x2="693.5" y2="400" transform="rotate(276, 400, 400)" opacity="0.82"></line><line x1="490" y1="400" x2="310" y2="400" transform="rotate(280, 400, 400)" opacity="0.25"></line><line x1="246.5" y1="400" x2="553.5" y2="400" transform="rotate(284, 400, 400)" opacity="0.92"></line><line x1="290.5" y1="400" x2="509.5" y2="400" transform="rotate(288, 400, 400)" opacity="0.84"></line><line x1="414" y1="400" x2="386" y2="400" transform="rotate(292, 400, 400)" opacity="0.48"></line><line x1="225" y1="400" x2="575" y2="400" transform="rotate(296, 400, 400)" opacity="0.22"></line><line x1="157.5" y1="400" x2="642.5" y2="400" transform="rotate(300, 400, 400)" opacity="0.22"></line><line x1="287" y1="400" x2="513" y2="400" transform="rotate(304, 400, 400)" opacity="0.25"></line><line x1="631.5" y1="400" x2="168.5" y2="400" transform="rotate(308, 400, 400)" opacity="0.41"></line><line x1="175.5" y1="400" x2="624.5" y2="400" transform="rotate(312, 400, 400)" opacity="0.09"></line><line x1="604.5" y1="400" x2="195.5" y2="400" transform="rotate(316, 400, 400)" opacity="0.57"></line><line x1="474" y1="400" x2="326" y2="400" transform="rotate(320, 400, 400)" opacity="0.89"></line><line x1="457.5" y1="400" x2="342.5" y2="400" transform="rotate(324, 400, 400)" opacity="0.18"></line><line x1="417" y1="400" x2="383" y2="400" transform="rotate(328, 400, 400)" opacity="0.92"></line><line x1="81.5" y1="400" x2="718.5" y2="400" transform="rotate(332, 400, 400)" opacity="0.57"></line><line x1="479.5" y1="400" x2="320.5" y2="400" transform="rotate(336, 400, 400)" opacity="0.73"></line><line x1="47" y1="400" x2="753" y2="400" transform="rotate(340, 400, 400)" opacity="0.48"></line><line x1="648" y1="400" x2="152" y2="400" transform="rotate(344, 400, 400)" opacity="0.99"></line><line x1="587" y1="400" x2="213" y2="400" transform="rotate(348, 400, 400)" opacity="0.53"></line></g></svg>